<svg width="28" height="28" viewBox="0 0 28 28" fill="none" xmlns="http://www.w3.org/2000/svg">
<g id="Iconly/Bold/Activity">
<g id="Activity">
<path id="Vector" d="M18.5996 3.04024C18.5463 3.37357 18.5196 3.7069 18.5196 4.04024C18.5196 7.04024 20.9463 9.46557 23.9329 9.46557C24.2663 9.46557 24.5863 9.4269 24.9196 9.37357V20.1322C24.9196 24.6536 22.2529 27.3336 17.7196 27.3336H7.86759C3.33293 27.3336 0.66626 24.6536 0.66626 20.1322V10.2669C0.66626 5.73357 3.33293 3.04024 7.86759 3.04024H18.5996ZM18.8676 11.1469C18.5063 11.1069 18.1476 11.2669 17.9329 11.5602L14.7076 15.7336L11.0129 12.8269C10.7863 12.6536 10.5196 12.5856 10.2529 12.6136C9.98759 12.6536 9.74759 12.7989 9.58626 13.0122L5.64093 18.1469L5.55959 18.2669C5.33293 18.6922 5.43959 19.2389 5.83959 19.5336C6.02626 19.6536 6.22626 19.7336 6.45293 19.7336C6.76093 19.7469 7.05293 19.5856 7.23959 19.3336L10.5863 15.0256L14.3863 17.8802L14.5063 17.9589C14.9329 18.1856 15.4663 18.0802 15.7729 17.6789L19.6263 12.7069L19.5729 12.7336C19.7863 12.4402 19.8263 12.0669 19.6796 11.7336C19.5343 11.4002 19.2129 11.1736 18.8676 11.1469ZM24.1197 0.666504C25.8931 0.666504 27.3331 2.1065 27.3331 3.87984C27.3331 5.65317 25.8931 7.09317 24.1197 7.09317C22.3464 7.09317 20.9064 5.65317 20.9064 3.87984C20.9064 2.1065 22.3464 0.666504 24.1197 0.666504Z" fill="white"/>
</g>
</g>
</svg>
