<svg width="26" height="28" viewBox="0 0 26 28" fill="none" xmlns="http://www.w3.org/2000/svg">
<g id="Iconly/Bold/Home">
<g id="Home">
<path id="Vector" d="M9.17971 25.6976V21.6207C9.17971 20.5799 10.0296 19.7362 11.0779 19.7362H14.9102C15.4136 19.7362 15.8964 19.9348 16.2524 20.2882C16.6084 20.6416 16.8084 21.1209 16.8084 21.6207V25.6976C16.8052 26.1303 16.9761 26.5463 17.2832 26.8534C17.5902 27.1605 18.0081 27.3332 18.4439 27.3332H21.0584C22.2795 27.3363 23.4517 26.857 24.3162 26.0009C25.1808 25.1449 25.6667 23.9825 25.6667 22.7703V11.1556C25.6667 10.1765 25.2294 9.24763 24.4728 8.6194L15.5787 1.56766C14.0316 0.331253 11.8148 0.371173 10.3139 1.66248L1.62269 8.6194C0.830331 9.22911 0.356747 10.1607 0.333344 11.1556V22.7584C0.333344 25.285 2.39652 27.3332 4.94157 27.3332H7.4964C8.40164 27.3332 9.13734 26.6081 9.1439 25.7095L9.17971 25.6976Z" fill="#B8BED9"/>
</g>
</g>
</svg>
